<?xml version="1.0" standalone="no"?>
<!DOCTYPE svg PUBLIC "-//W3C//DTD SVG 20010904//EN"
 "http://www.w3.org/TR/2001/REC-SVG-20010904/DTD/svg10.dtd">
<svg version="1.0" xmlns="http://www.w3.org/2000/svg"
 width="171.000000pt" height="66.000000pt" viewBox="0 0 171.000000 66.000000"
 preserveAspectRatio="xMidYMid meet">

<g transform="translate(0.000000,66.000000) scale(0.100000,-0.100000)"
fill="#000000" stroke="none">
<path d="M892 558 c-19 -19 -14 -44 11 -61 l22 -16 -22 0 c-18 -1 -22 -8 -25
-50 -3 -47 -1 -50 29 -65 27 -13 33 -13 43 0 7 7 18 14 26 14 17 0 28 62 17
97 -6 19 -22 34 -51 48 -25 12 -40 25 -37 32 6 16 2 16 -13 1z m58 -124 c0
-24 -4 -44 -10 -44 -5 0 -10 23 -10 51 0 31 4 48 10 44 6 -3 10 -26 10 -51z"/>
<path d="M701 521 c-9 -16 -8 -18 9 -14 18 5 20 0 20 -54 0 -67 14 -91 40 -68
13 11 15 27 10 75 -6 62 -18 80 -52 80 -10 0 -22 -9 -27 -19z"/>
<path d="M804 518 c-10 -15 -5 -120 6 -131 4 -5 16 -6 26 -3 16 5 19 15 17 67
-1 39 -6 65 -15 70 -18 12 -26 11 -34 -3z"/>
<path d="M170 267 c0 -53 42 -77 71 -39 11 14 11 15 -1 5 -8 -7 -22 -13 -32
-13 -14 0 -18 8 -18 40 0 22 -4 40 -10 40 -5 0 -10 -15 -10 -33z"/>
<path d="M242 275 c0 -16 2 -22 5 -12 2 9 2 23 0 30 -3 6 -5 -1 -5 -18z"/>
<path d="M324 255 c-1 -25 2 -45 7 -45 5 0 9 20 9 45 0 59 -15 59 -16 0z"/>
<path d="M364 291 c4 -6 3 -18 -3 -25 -8 -9 -2 -22 20 -49 17 -20 34 -37 39
-37 4 0 -5 14 -21 31 -21 22 -27 37 -23 54 3 13 0 26 -7 30 -8 5 -10 4 -5 -4z"/>
<path d="M460 255 c0 -25 5 -45 10 -45 6 0 10 20 10 45 0 25 -4 45 -10 45 -5
0 -10 -20 -10 -45z"/>
<path d="M496 274 c1 -14 5 -28 8 -31 3 -4 1 -12 -5 -20 -9 -9 -8 -13 0 -13
17 0 26 29 13 42 -6 6 -8 16 -6 23 3 7 1 16 -4 19 -5 3 -8 -6 -6 -20z"/>
<path d="M610 292 c0 -6 5 -23 12 -39 6 -15 11 -31 10 -35 -1 -5 5 -8 13 -8
12 0 11 7 -4 40 -20 44 -31 59 -31 42z"/>
<path d="M730 255 c0 -25 4 -45 8 -45 4 0 6 17 4 38 l-4 37 36 -34 c20 -19 36
-30 36 -25 0 11 -62 74 -73 74 -4 0 -7 -20 -7 -45z"/>
<path d="M805 290 c3 -5 8 -10 11 -10 2 0 4 5 4 10 0 6 -5 10 -11 10 -5 0 -7
-4 -4 -10z"/>
<path d="M925 255 c0 -25 5 -45 10 -45 6 0 9 19 7 45 -2 25 -7 45 -11 45 -3 0
-6 -20 -6 -45z"/>
<path d="M978 293 c18 -7 15 -60 -5 -72 -10 -6 -13 -11 -6 -11 17 0 43 29 43
49 0 19 -19 41 -34 40 -6 0 -5 -3 2 -6z"/>
<path d="M1075 255 c0 -25 5 -45 10 -45 6 0 10 20 10 45 0 25 -4 45 -10 45 -5
0 -10 -20 -10 -45z"/>
<path d="M1212 288 c-15 -15 -16 -55 -1 -64 7 -4 9 0 5 14 -4 12 -2 30 4 42
12 23 10 26 -8 8z"/>
<path d="M1376 291 c-4 -6 -2 -19 6 -28 7 -9 12 -18 10 -20 -5 -6 16 -38 21
-33 3 3 -3 25 -13 49 -10 28 -20 40 -24 32z"/>
<path d="M1485 274 c9 -14 15 -35 12 -45 -3 -12 0 -19 8 -19 8 0 11 8 8 23 -7
33 -25 67 -36 67 -5 0 -2 -12 8 -26z"/>
<path d="M590 239 c0 -5 5 -7 10 -4 6 3 10 8 10 11 0 2 -4 4 -10 4 -5 0 -10
-5 -10 -11z"/>
<path d="M1350 230 c-6 -11 -7 -20 -2 -20 6 0 12 9 15 20 3 11 3 20 1 20 -2 0
-8 -9 -14 -20z"/>
<path d="M1250 220 c-23 -7 -23 -8 -3 -9 12 -1 25 4 28 9 3 6 5 10 3 9 -2 -1
-14 -5 -28 -9z"/>
</g>
</svg>
